<svg width="768" height="406" xmlns="http://www.w3.org/2000/svg"><g transform="translate(-.242 .29)" fill="none" fill-rule="evenodd"><path fill="#FFF" fill-rule="nonzero" d="M.608.3H767.52v405.304H.608z"/><path d="M427.688 167.9l-1.5-1.32 41.45-47.26a16 16 0 0 1 10.83-4.22h64.29v2h-64.3a14 14 0 0 0-9.44 3.66l-41.33 47.14z" fill="#A0A0A0" fill-rule="nonzero"/><path d="M542.748 265.59h-64.29a16 16 0 0 1-10.83-4.22l-.07-.08-44.56-50.54 1.5-1.32 44.53 50.5a14 14 0 0 0 9.44 3.66h64.29l-.01 2z" fill="#C72C48" fill-rule="nonzero"/><path d="M567.328 86.1h25.52c3.16 0 5.05.76 5.39 2.53.57 2.95.66 5.64-2.3 6.78a2.19 2.19 0 0 0-1.18 1.56c-1.46 12.34-2.82 24.69-4.27 37a30.57 30.57 0 0 1-1.28 6.73c-1.12 3.16-3.42 4.35-7.43 4.36h-27.8c-6 0-8.94-2.09-9.5-7a10183.82 10183.82 0 0 1-4.21-37c-.1-.92-.31-1.84-.36-2.76-.08-1.42-.09-2.67-2.14-3.48-1.83-.72-2.43-4.1-1.49-6.33.82-1.94 2.73-2.45 5.06-2.44 8.67.07 17.35.05 25.99.05zm25.83 9.72h-51.8c.76 6.73 1.49 13.29 2.25 19.86.88 7.61 1.76 15.22 2.72 22.82.47 3.73 2.62 5.22 7.14 5.22h27.1c5.22 0 7.17-1.42 7.69-5.75 1.2-9.94 2.377-19.88 3.53-29.82.49-4.09.9-8.19 1.37-12.33zm-25.79-1.5h25.74c3 0 3.74-.77 3.73-3.54-.01-2.77-.77-3.33-3.71-3.34h-51.47c-1.16 0-3.12.44-3.31 1a7.07 7.07 0 0 0-.1 4.6c.24.65 2.34 1.19 3.61 1.2 8.5.17 17.01.08 25.51.08zm-.04 140.78h25.52c3.16 0 5.05.76 5.39 2.53.57 2.95.66 5.64-2.3 6.78a2.19 2.19 0 0 0-1.18 1.56c-1.46 12.34-2.82 24.69-4.27 37a30.57 30.57 0 0 1-1.28 6.73c-1.12 3.16-3.42 4.35-7.43 4.36h-27.8c-6 0-8.94-2.09-9.5-7a10183.82 10183.82 0 0 1-4.21-37c-.1-.92-.31-1.84-.36-2.76-.08-1.42-.09-2.67-2.14-3.48-1.83-.72-2.43-4.1-1.49-6.33.82-1.94 2.73-2.45 5.06-2.44 8.67.07 17.35.05 25.99.05zm25.83 9.72h-51.8c.76 6.73 1.49 13.29 2.25 19.86.88 7.61 1.76 15.22 2.72 22.82.47 3.73 2.62 5.22 7.14 5.22h27.1c5.22 0 7.17-1.42 7.69-5.75 1.2-9.94 2.377-19.88 3.53-29.82.49-4.09.9-8.19 1.37-12.33zm-25.79-1.5h25.74c3 0 3.74-.77 3.73-3.54-.01-2.77-.77-3.33-3.71-3.34h-51.47c-1.16 0-3.12.44-3.31 1a7.07 7.07 0 0 0-.1 4.6c.24.65 2.34 1.19 3.61 1.2 8.5.17 17.01.08 25.51.08z" fill="#424242" fill-rule="nonzero"/><path d="M268.258 265.59h-59.29v-2h59.29a14 14 0 0 0 9.43-3.66l41.31-47.15 1.5 1.32-41.42 47.27a16 16 0 0 1-10.82 4.22z" fill="#A0A0A0" fill-rule="nonzero"/><path d="M318.998 167.9l-41.31-47.15a14 14 0 0 0-9.43-3.66h-59.29v-2h59.29a16 16 0 0 1 10.82 4.23l.08.08 41.34 47.19-1.5 1.31z" fill="#C72C48" fill-rule="nonzero"/><circle fill="#C72C48" fill-rule="nonzero" cx="372.248" cy="186.59" r="60.5"/><path d="M357.158 180.35h4.81v12.49h-4.81v-12.49zm-5.83.17l-9.77 5.24a.49.49 0 0 1-.45 0l-9.77-5.24a1.48 1.48 0 0 0-.7-.17 1.27 1.27 0 0 0-1.34 1.18v11.29h4.81v-5.38a.49.49 0 0 1 .73-.36l5.47 2.94a1.92 1.92 0 0 0 1.76 0l5.78-3a.48.48 0 0 1 .72.36v5.39h4.81v-11.25a1.27 1.27 0 0 0-1.34-1.18 1.48 1.48 0 0 0-.71.18zm34.64-.2h-4.88V186a.48.48 0 0 1-.71.37l-12.69-5.88a1.49 1.49 0 0 0-.63-.14 1.27 1.27 0 0 0-1.34 1.18v11.3h4.84v-5.68a.48.48 0 0 1 .71-.37l12.7 5.92c.197.092.412.14.63.14a1.27 1.27 0 0 0 1.34-1.18l.03-11.34zm3.78 12.51v-12.51h2.21v12.49l-2.21.02zm15.25.23c-6 0-10.18-2.48-10.18-6.46s4.25-6.46 10.18-6.46 10.21 2.48 10.21 6.46-4.18 6.46-10.21 6.46zm0-11.27c-4.43 0-7.84 1.7-7.84 4.81 0 3.11 3.41 4.81 7.84 4.81s7.87-1.68 7.87-4.81-3.44-4.82-7.87-4.82v.01z" fill="#FFF" fill-rule="nonzero"/><path d="M372.748 247.09v79" stroke="#C72C48" stroke-width="2"/><path d="M150.658 115.09h11.6v2h-11.6v-2zm-59-1h11.6v2h-11.6v-2z" fill="#C72C48" fill-rule="nonzero"/><path d="M185.088 139.7l-23.56-10.1v-28.13l23.56-9 24.72 9v28.15l-24.72 10.08zm-22.4-10.84l22.44 9.62 23.56-9.62v-26.61l-23.58-8.56-22.42 8.55v26.62z" fill="#000" fill-rule="nonzero"/><path fill="#000" fill-rule="nonzero" d="M185.678 139.09h-1.16v-28.61l24.07-9.17.41 1.09-23.32 8.88z"/><path d="M161.874 102.914l.413-1.084 22.999 8.76-.413 1.083-22.999-8.759zM126.088 139.7l-23.56-10.1v-28.13l23.56-9 24.72 9v28.15l-24.72 10.08zm-22.4-10.84l22.44 9.62 23.56-9.62v-26.61l-23.58-8.56-22.42 8.55v26.62z" fill="#000" fill-rule="nonzero"/><path fill="#000" fill-rule="nonzero" d="M126.678 139.09h-1.16v-28.61l24.07-9.17.41 1.09-23.32 8.88z"/><path d="M102.874 102.92l.413-1.083 22.999 8.76-.413 1.083-22.999-8.76zM67.088 139.7l-23.56-10.1v-28.13l23.56-9 24.72 9v28.15l-24.72 10.08zm-22.4-10.84l22.44 9.62 23.56-9.62v-26.61l-23.58-8.56-22.42 8.55v26.62z" fill="#000" fill-rule="nonzero"/><path fill="#000" fill-rule="nonzero" d="M67.678 139.09h-1.16v-28.61l24.07-9.17.41 1.09-23.32 8.88z"/><path fill="#000" fill-rule="nonzero" d="M43.876 102.917l.412-1.084 22.999 8.76-.413 1.083z"/><path d="M149.658 264.09h11.6v2h-11.6v-2zm-59-1h11.6v2h-11.6v-2z" fill="#C72C48" fill-rule="nonzero"/><path d="M184.088 288.7l-23.56-10.1v-28.13l23.56-9 24.72 9v28.15l-24.72 10.08zm-22.4-10.84l22.44 9.62 23.56-9.62v-26.61l-23.58-8.56-22.42 8.55v26.62z" fill="#000" fill-rule="nonzero"/><path fill="#000" fill-rule="nonzero" d="M184.678 288.09h-1.16v-28.61l24.07-9.16.41 1.08-23.32 8.88z"/><path d="M160.871 251.91l.413-1.083 22.999 8.76-.413 1.083-22.999-8.76zm-35.783 36.79l-23.56-10.1v-28.13l23.56-9 24.72 9v28.15l-24.72 10.08zm-22.4-10.84l22.44 9.62 23.56-9.62v-26.61l-23.58-8.56-22.42 8.55v26.62z" fill="#000" fill-rule="nonzero"/><path fill="#000" fill-rule="nonzero" d="M125.678 288.09h-1.16v-28.61l24.07-9.16.41 1.08-23.32 8.88z"/><path d="M101.881 251.908l.413-1.084 22.999 8.759-.413 1.084-22.999-8.759zM66.088 288.7l-23.56-10.1v-28.13l23.56-9 24.72 9v28.15l-24.72 10.08zm-22.4-10.84l22.44 9.62 23.56-9.62v-26.61l-23.58-8.56-22.42 8.55v26.62z" fill="#000" fill-rule="nonzero"/><path fill="#000" fill-rule="nonzero" d="M66.678 288.09h-1.16v-28.61l24.07-9.16.41 1.08-23.32 8.88z"/><path fill="#000" fill-rule="nonzero" d="M42.883 251.914l.412-1.084 22.999 8.76-.413 1.083z"/><ellipse stroke="#A0A0A0" stroke-width="1.69" cx="372.748" cy="333.19" rx="24" ry="6.9"/><path d="M396.748 334.23v23.86c0 5.14-10.75 9.31-24 9.31s-24-4.17-24-9.31v-24" stroke="#A0A0A0" stroke-width="1.96"/><path d="M684.248 159.09h-34.68a4.33 4.33 0 0 1-4.32-4.32v-39.36h2v39.36a2.32 2.32 0 0 0 2.32 2.32h34.68v2z" fill="#C72C48" fill-rule="nonzero"/><path d="M699.588 172.69l-16-6.88v-19.2l16-6.11 16.83 6.11v19.21l-16.83 6.87zm-14.9-7.61l15 6.41 15.72-6.41v-17.69l-15.72-5.7-15 5.7v17.69z" fill="#C72C48" fill-rule="nonzero"/><path fill="#C72C48" fill-rule="nonzero" d="M700.148 172.09h-1.11V152.7l16.33-6.22.39 1.04-15.61 5.94z"/><path fill="#C72C48" fill-rule="nonzero" d="M683.835 147.834l.395-1.038 15.503 5.905-.395 1.037z"/><path d="M647.248 116.09h-2V76.73a4.33 4.33 0 0 1 4.32-4.32h34.68v2h-34.68a2.32 2.32 0 0 0-2.32 2.32v39.36z" fill="#A0A0A0" fill-rule="nonzero"/><path d="M699.588 89.69l-16-6.88v-19.2l16-6.11 16.83 6.11v19.21l-16.83 6.87zm-14.9-7.61l15 6.41 15.72-6.41V64.39l-15.72-5.7-15 5.7v17.69z" fill="#000" fill-rule="nonzero"/><path fill="#000" fill-rule="nonzero" d="M700.148 89.09h-1.11V69.7l16.33-6.22.39 1.04-15.61 5.94z"/><path fill="#000" fill-rule="nonzero" d="M683.831 64.842l.395-1.038 15.503 5.905-.395 1.037z"/><path fill="#A0A0A0" fill-rule="nonzero" d="M592.548 115.09h92.19v2h-92.19z"/><path d="M699.588 131.69l-16-6.88v-19.2l16-6.11 16.83 6.11v19.21l-16.83 6.87zm-14.9-7.61l15 6.41 15.72-6.41v-17.69l-15.72-5.7-15 5.7v17.69z" fill="#000" fill-rule="nonzero"/><path fill="#000" fill-rule="nonzero" d="M700.148 131.09h-1.11V111.7l16.33-6.22.39 1.04-15.61 5.94z"/><path fill="#000" fill-rule="nonzero" d="M683.829 106.84l.396-1.037 15.503 5.905-.395 1.037z"/><path d="M684.248 308.09h-34.68a4.33 4.33 0 0 1-4.32-4.32v-39.36h2v39.36a2.32 2.32 0 0 0 2.32 2.32h34.68v2z" fill="#C72C48" fill-rule="nonzero"/><path d="M699.588 321.69l-16-6.88v-19.2l16-6.11 16.83 6.11v19.21l-16.83 6.87zm-14.9-7.61l15 6.41 15.72-6.42v-17.69l-15.72-5.7-15 5.69v17.71z" fill="#C72C48" fill-rule="nonzero"/><path fill="#C72C48" fill-rule="nonzero" d="M700.148 321.09h-1.11V301.7l16.33-6.22.39 1.04-15.61 5.94z"/><path fill="#C72C48" fill-rule="nonzero" d="M683.942 296.94l.395-1.038 15.503 5.907-.396 1.038z"/><path d="M647.248 265.09h-2v-39.36a4.32 4.32 0 0 1 4.32-4.32h34.68v2h-34.68a2.32 2.32 0 0 0-2.32 2.32v39.36z" fill="#A0A0A0" fill-rule="nonzero"/><path d="M699.588 238.69l-16-6.88v-19.2l16-6.11 16.83 6.11v19.21l-16.83 6.87zm-14.9-7.61l15 6.41 15.72-6.42v-17.68l-15.72-5.7-15 5.7v17.69z" fill="#000" fill-rule="nonzero"/><path fill="#000" fill-rule="nonzero" d="M700.148 238.09h-1.11V218.7l16.33-6.22.39 1.04-15.61 5.94z"/><path fill="#000" fill-rule="nonzero" d="M683.942 213.934l.395-1.037 15.503 5.908-.395 1.037z"/><path d="M699.588 280.69l-16-6.88v-19.2l16-6.11 16.83 6.11v19.21l-16.83 6.87zm-14.9-7.61l15 6.41 15.72-6.42v-17.69l-15.72-5.7-15 5.69v17.71z" fill="#C72C48" fill-rule="nonzero"/><path fill="#C72C48" fill-rule="nonzero" d="M700.148 280.09h-1.11V260.7l16.33-6.22.39 1.04-15.61 5.94z"/><path fill="#C72C48" fill-rule="nonzero" d="M683.94 255.94l.395-1.037 15.502 5.907-.395 1.038z"/><circle fill="#686868" fill-rule="nonzero" cx="66.438" cy="174.87" r="2.74"/><circle fill="#AAA" fill-rule="nonzero" cx="66.438" cy="186.59" r="2.74"/><circle fill="#D3D3D3" fill-rule="nonzero" cx="66.438" cy="198.31" r="2.74"/><circle fill="#686868" fill-rule="nonzero" cx="125.438" cy="174.87" r="2.74"/><circle fill="#AAA" fill-rule="nonzero" cx="125.438" cy="186.59" r="2.74"/><circle fill="#D3D3D3" fill-rule="nonzero" cx="125.438" cy="198.31" r="2.74"/><circle fill="#686868" fill-rule="nonzero" cx="184.438" cy="174.87" r="2.74"/><circle fill="#AAA" fill-rule="nonzero" cx="184.438" cy="186.59" r="2.74"/><circle fill="#D3D3D3" fill-rule="nonzero" cx="184.438" cy="198.31" r="2.74"/><circle fill="#686868" fill-rule="nonzero" cx="564.438" cy="177.87" r="2.74"/><circle fill="#AAA" fill-rule="nonzero" cx="564.438" cy="189.59" r="2.74"/><circle fill="#D3D3D3" fill-rule="nonzero" cx="564.438" cy="201.31" r="2.74"/><path fill="#C72C48" fill-rule="nonzero" d="M592.548 264.09h92.19v2h-92.19z"/><path d="M118.985 70.714c2.97 0 4.855 1.774 4.855 4.55 0 2.775-1.885 4.55-4.855 4.55h-3.426v-9.1h3.426zm-2.38.988v7.124h2.38c2.463 0 3.757-1.43 3.757-3.562 0-2.152-1.294-3.562-3.757-3.562h-2.38zm15.009 8.112h-.968v-.917c-.494.631-1.229 1.04-2.25 1.04-1.735 0-3.074-1.352-3.074-3.204 0-1.846 1.339-3.198 3.075-3.198 1.02 0 1.755.416 2.249 1.04v-.917h.968v6.156zm-3.1-5.369c-1.32 0-2.204 1.02-2.204 2.288 0 1.274.897 2.294 2.204 2.294 1.28 0 2.19-.988 2.19-2.294 0-1.3-.91-2.288-2.19-2.288zm9.555.091h-2.659v3.107c0 .962.514 1.384 1.222 1.384.475 0 .93-.175 1.294-.435l.455.734a2.933 2.933 0 0 1-1.827.612c-1.326 0-2.112-.729-2.112-2.276v-3.126h-1.346v-.878h1.346v-1.956h.968v1.956h2.659v.878zm7.514 5.278h-.969v-.917c-.494.631-1.228 1.04-2.249 1.04-1.735 0-3.074-1.352-3.074-3.204 0-1.846 1.339-3.198 3.074-3.198 1.02 0 1.755.416 2.249 1.04v-.917h.969v6.156zm-3.101-5.369c-1.32 0-2.203 1.02-2.203 2.288 0 1.274.897 2.294 2.203 2.294 1.28 0 2.19-.988 2.19-2.294 0-1.3-.91-2.288-2.19-2.288zm84.772 23.177a4.79 4.79 0 0 0-2.743-.851c-1.371 0-2.353.624-2.353 1.644 0 .852.676 1.313 2.1 1.476l.864.104c1.502.188 2.84.806 2.84 2.392 0 1.794-1.637 2.737-3.6 2.737-1.313 0-2.73-.462-3.575-1.17l.572-.833c.617.533 1.82 1.014 2.996 1.014 1.41 0 2.522-.572 2.522-1.657 0-.884-.767-1.326-2.203-1.489l-.917-.104c-1.553-.175-2.684-.897-2.684-2.405 0-1.729 1.54-2.697 3.445-2.697 1.378 0 2.437.403 3.269.994l-.533.845zm8.749 0a4.79 4.79 0 0 0-2.743-.851c-1.371 0-2.353.624-2.353 1.644 0 .852.676 1.313 2.1 1.476l.864.104c1.502.188 2.84.806 2.84 2.392 0 1.794-1.637 2.737-3.6 2.737-1.313 0-2.73-.462-3.575-1.17l.572-.833c.617.533 1.82 1.014 2.996 1.014 1.41 0 2.522-.572 2.522-1.657 0-.884-.767-1.326-2.203-1.489l-.917-.104c-1.553-.175-2.684-.897-2.684-2.405 0-1.729 1.54-2.697 3.445-2.697 1.378 0 2.437.403 3.269.994l-.533.845zm9.21 7.378h-6.402v-9.1h6.344v.981h-5.297v3.049h5.135v.975h-5.135v3.113h5.356V105zm5.493-2.997h-3.614v-.884h3.614v.884zm7.872-4.38a4.79 4.79 0 0 0-2.743-.852c-1.372 0-2.353.624-2.353 1.644 0 .852.676 1.313 2.099 1.476l.865.104c1.501.188 2.84.806 2.84 2.392 0 1.794-1.638 2.737-3.601 2.737-1.313 0-2.73-.462-3.575-1.17l.572-.833c.618.533 1.82 1.014 2.997 1.014 1.41 0 2.522-.572 2.522-1.657 0-.884-.767-1.326-2.204-1.489l-.916-.104c-1.554-.175-2.685-.897-2.685-2.405 0-1.729 1.54-2.697 3.445-2.697 1.378 0 2.438.403 3.27.994l-.533.845zm5.115-1.84c1.794 0 3.01 1.014 3.01 2.49 0 1.072-.566 1.767-1.424 2.131.956.345 1.625 1.086 1.625 2.158 0 1.736-1.521 2.555-3.126 2.555-1.274 0-2.282-.442-2.951-1.196l.643-.67c.572.592 1.385.93 2.288.93 1.125 0 2.1-.533 2.1-1.664 0-1.053-.982-1.651-2.197-1.651h-1.196v-.917h1.189c1.118 0 2.002-.546 2.002-1.625 0-.981-.877-1.605-2.021-1.605-.91 0-1.612.474-2.009 1.033l-.721-.617c.52-.774 1.482-1.352 2.788-1.352zm-36.439 151.839a4.79 4.79 0 0 0-2.743-.851c-1.371 0-2.353.624-2.353 1.644 0 .852.676 1.313 2.1 1.476l.864.104c1.502.188 2.84.806 2.84 2.392 0 1.794-1.637 2.736-3.6 2.736-1.313 0-2.73-.461-3.575-1.17l.572-.832c.617.533 1.82 1.014 2.996 1.014 1.41 0 2.522-.572 2.522-1.657 0-.884-.767-1.326-2.203-1.489l-.917-.104c-1.553-.175-2.684-.897-2.684-2.405 0-1.729 1.54-2.697 3.445-2.697 1.378 0 2.437.403 3.269.994l-.533.845zm8.749 0a4.79 4.79 0 0 0-2.743-.851c-1.371 0-2.353.624-2.353 1.644 0 .852.676 1.313 2.1 1.476l.864.104c1.502.188 2.84.806 2.84 2.392 0 1.794-1.637 2.736-3.6 2.736-1.313 0-2.73-.461-3.575-1.17l.572-.832c.617.533 1.82 1.014 2.996 1.014 1.41 0 2.522-.572 2.522-1.657 0-.884-.767-1.326-2.203-1.489l-.917-.104c-1.553-.175-2.684-.897-2.684-2.405 0-1.729 1.54-2.697 3.445-2.697 1.378 0 2.437.403 3.269.994l-.533.845zm9.21 7.378h-6.402v-9.1h6.344v.981h-5.297v3.049h5.135v.975h-5.135v3.113h5.356V255zm5.493-2.997h-3.614v-.884h3.614v.884zm6.403-6.233c1.586 0 2.996.721 3.711 1.885l-.871.585c-.604-.897-1.638-1.463-2.84-1.463-2.041 0-3.601 1.482-3.601 3.673 0 2.19 1.56 3.672 3.6 3.672 1.216 0 2.224-.539 2.841-1.456l.845.624c-.76 1.138-2.112 1.84-3.685 1.84-2.704 0-4.7-1.95-4.7-4.68 0-2.73 1.996-4.68 4.7-4.68zM545.842 75h-1.046v-7.93l-3.172 6.922h-1.099l-3.165-6.87V75h-1.047v-9.1h1.586l3.179 6.877 3.172-6.877h1.592V75zm3.055 2.626h-1.072l2.294-3.959-2.828-4.823h1.086l2.295 3.861 2.17-3.86h1.067l-5.012 8.781zM562.014 65.9c1.911 0 3.289.67 3.289 2.398 0 1.027-.552 1.736-1.371 2.015.91.3 1.566 1.034 1.566 2.158 0 1.768-1.3 2.529-3.315 2.529h-3.692v-9.1h3.523zm-2.476 4.972v3.146h2.6c1.365 0 2.262-.357 2.262-1.579 0-1.209-.897-1.567-2.262-1.567h-2.6zm0-3.99v3.015h2.444c1.248 0 2.223-.299 2.223-1.52 0-1.197-.975-1.496-2.23-1.496h-2.437zm13.409 5.55c0 1.827-1.313 2.691-2.795 2.691-1.488 0-2.795-.864-2.795-2.69v-3.589h.969v3.497c0 1.274.767 1.872 1.826 1.872 1.053 0 1.82-.598 1.82-1.872v-3.497h.975v3.588zm4.92-3.711c.917 0 1.73.338 2.282.968l-.624.657c-.468-.449-1.007-.715-1.683-.715-1.229 0-2.171.962-2.171 2.288 0 1.326.942 2.294 2.17 2.294.677 0 1.262-.299 1.704-.721l.604.663c-.565.63-1.365.968-2.281.968-1.898 0-3.185-1.378-3.185-3.204 0-1.82 1.287-3.198 3.185-3.198zm4.915 2.62h.89l2.373-2.497h1.215l-2.795 2.9 2.84 3.256h-1.228l-2.411-2.776h-.884V75h-.975v-9.36h.975v5.7zm8.229-2.62c1.67 0 2.873 1.306 2.892 3.178 0 .137-.006.254-.02.364h-4.933c.137 1.326 1.066 2.009 2.178 2.009a2.82 2.82 0 0 0 1.95-.774l.52.663c-.767.735-1.619.962-2.529.962-1.82 0-3.113-1.293-3.113-3.198 0-1.885 1.306-3.204 3.055-3.204zm-.02.864c-1.137 0-1.872.78-2.028 1.892h3.952c-.123-1.15-.877-1.892-1.924-1.892zm8.834.137h-2.659v3.107c0 .962.514 1.384 1.222 1.384.475 0 .93-.175 1.294-.435l.455.734a2.933 2.933 0 0 1-1.827.611c-1.326 0-2.112-.728-2.112-2.275v-3.126h-1.346v-.878h1.346v-1.956h.968v1.956h2.659v.878zM675.842 44h-1.046v-7.93l-3.172 6.922h-1.099l-3.165-6.87V44h-1.047v-9.1h1.586l3.179 6.877 3.172-6.877h1.592V44zm3.055 2.626h-1.072l2.294-3.959-2.828-4.823h1.086l2.295 3.861 2.17-3.86h1.067l-5.012 8.781zm13.767-11.856c2.704 0 4.7 1.95 4.7 4.68 0 2.73-1.996 4.68-4.7 4.68s-4.7-1.95-4.7-4.68c0-2.73 1.996-4.68 4.7-4.68zm0 1.007c-2.041 0-3.601 1.482-3.601 3.673 0 2.19 1.56 3.672 3.601 3.672 2.048 0 3.608-1.482 3.608-3.672 0-2.19-1.56-3.673-3.608-3.673zm9.848 1.944c1.729 0 3.074 1.352 3.074 3.198 0 1.852-1.345 3.205-3.074 3.205-1.021 0-1.749-.41-2.243-1.034V44h-.975v-9.36h.975v4.114c.494-.624 1.222-1.033 2.243-1.033zm-.117.91c-1.281 0-2.191.988-2.191 2.288 0 1.306.91 2.294 2.19 2.294 1.32 0 2.198-1.02 2.198-2.294 0-1.268-.891-2.288-2.197-2.288zm5.999 6.383c0 1.092-.604 1.684-1.534 1.684a1.97 1.97 0 0 1-.884-.208l.234-.839c.156.078.358.13.566.13.396 0 .643-.24.643-.812v-7.125h.975v7.17zm-.494-10.043c.384 0 .689.3.689.69 0 .39-.305.682-.689.682a.666.666 0 0 1-.682-.683c0-.39.292-.689.682-.689zm5.356 2.75c1.67 0 2.873 1.306 2.893 3.178 0 .137-.007.254-.02.364h-4.933c.136 1.326 1.066 2.009 2.177 2.009a2.82 2.82 0 0 0 1.95-.774l.52.663c-.767.735-1.618.963-2.528.963-1.82 0-3.114-1.294-3.114-3.199 0-1.885 1.307-3.204 3.055-3.204zm-.02.864c-1.137 0-1.871.78-2.027 1.892h3.952c-.124-1.15-.878-1.892-1.924-1.892zm7.437-.864c.916 0 1.729.338 2.281.968l-.624.657c-.468-.449-1.007-.715-1.683-.715-1.229 0-2.171.962-2.171 2.288 0 1.326.942 2.294 2.17 2.294.677 0 1.262-.299 1.704-.721l.604.663c-.565.63-1.365.968-2.281.968-1.898 0-3.185-1.378-3.185-3.204 0-1.82 1.287-3.198 3.185-3.198zm8.203 1.001h-2.659v3.107c0 .962.514 1.384 1.222 1.384.475 0 .93-.175 1.294-.435l.455.734a2.933 2.933 0 0 1-1.827.612c-1.326 0-2.112-.729-2.112-2.276v-3.126h-1.346v-.878h1.346v-1.956h.968v1.956h2.659v.878zM361.439 352.918h-1.08V357h-1.046v-9.1h1.047v4.03h1.098l3.777-4.03h1.352l-4.277 4.465 4.556 4.635h-1.423l-4.004-4.082zM377.864 357h-1.046v-7.93l-3.172 6.922h-1.099l-3.165-6.87V357h-1.047v-9.1h1.586l3.179 6.877 3.172-6.877h1.592v9.1zm8.567-7.378a4.79 4.79 0 0 0-2.743-.851c-1.371 0-2.353.624-2.353 1.644 0 .852.676 1.313 2.1 1.476l.864.104c1.502.188 2.84.806 2.84 2.392 0 1.794-1.637 2.736-3.6 2.736-1.313 0-2.73-.461-3.575-1.17l.572-.832c.617.533 1.82 1.014 2.996 1.014 1.41 0 2.522-.572 2.522-1.657 0-.884-.767-1.326-2.203-1.489l-.917-.104c-1.553-.175-2.684-.897-2.684-2.405 0-1.729 1.54-2.697 3.445-2.697 1.378 0 2.437.403 3.269.994l-.533.845z" fill="#000"/></g></svg>